<svg width="373.430029296875px" height="122.02138671875px" xmlns="http://www.w3.org/2000/svg" viewBox="63.28498535156251 13.989306640625003 373.430029296875 122.02138671875" style="background: rgba(216, 216, 216, 0); --darkreader-inline-bgimage: initial; --darkreader-inline-bgcolor:rgba(67, 69, 70, 0);" data-darkreader-inline-bgimage="" data-darkreader-inline-bgcolor="" preserveAspectRatio="xMidYMid"><defs><linearGradient id="editing-gradient-gradient" x1="0" x2="1" y1="0.5" y2="0.5" gradientUnits="objectBoundingBox"><stop offset="0" stop-color="#26ad58"></stop><stop offset="1" stop-color="#000000"></stop></linearGradient></defs><g><g transform="translate(120.00187540054321, 97.22281265258789)"><path d="M6.21-31.17L6.21-31.17L6.21-31.17Q4.03-32.83 4.03-36.38L4.03-36.38L4.03-36.38Q4.03-39.94 6.37-41.79L6.37-41.79L6.37-41.79Q8.70-43.65 12.74-43.65L12.74-43.65L12.74-43.65Q15.30-43.65 21.38-42.75L21.38-42.75L25.73-42.11L25.73-42.11Q27.90-41.86 30.18-41.86L30.18-41.86L30.18-41.86Q32.45-41.86 33.98-42.82L33.98-42.82L33.98-42.82Q36.29-40.77 36.29-37.82L36.29-37.82L36.29-37.82Q36.29-34.88 33.66-32.77L33.66-32.77L33.66-32.77Q30.98-30.53 27.52-30.53L27.52-30.53L27.52-30.53Q25.86-30.53 23.17-30.98L23.17-30.98L23.17-30.98Q20.03-21.12 20.03-14.27L20.03-14.27L20.03-14.27Q20.03-7.42 23.49-3.84L23.49-3.84L23.49-3.84Q21.89-0.96 19.52 0.16L19.52 0.16L19.52 0.16Q17.15 1.28 13.60 1.28L13.60 1.28L13.60 1.28Q10.05 1.28 7.84-0.67L7.84-0.67L7.84-0.67Q5.63-2.62 5.63-6.66L5.63-6.66L5.63-6.66Q5.63-11.33 8.19-19.01L8.19-19.01L8.19-19.01Q10.75-26.62 14.59-32.45L14.59-32.45L14.59-32.45Q12.74-32.64 10.82-32.64L10.82-32.64L10.82-32.64Q6.85-32.64 6.21-31.17ZM47.36 0L33.66 0L41.47-42.05L41.47-42.05Q47.81-42.75 57.06-42.75L57.06-42.75L57.06-42.75Q66.30-42.75 70.59-40.06L70.59-40.06L70.59-40.06Q74.88-37.38 74.88-31.97L74.88-31.97L74.88-31.97Q74.88-26.56 72.10-23.17L72.10-23.17L72.10-23.17Q69.31-19.78 64.51-18.69L64.51-18.69L64.51-18.69Q65.60-13.38 68.10-9.09L68.10-9.09L68.10-9.09Q70.40-5.06 73.09-3.78L73.09-3.78L73.09-3.78Q72.13-1.09 70.18 0.10L70.18 0.10L70.18 0.10Q68.22 1.28 65.44 1.28L65.44 1.28L65.44 1.28Q62.66 1.28 60.48-0.35L60.48-0.35L60.48-0.35Q58.30-1.98 56.58-4.99L56.58-4.99L56.58-4.99Q52.93-11.52 52.54-21.82L52.54-21.82L52.99-21.82L52.99-21.82Q57.73-21.95 60.10-24.42L60.10-24.42L60.10-24.42Q62.46-26.88 62.46-32.06L62.46-32.06L62.46-32.06Q62.46-38.53 57.02-38.78L57.02-38.78L55.62-38.78L55.62-38.78Q55.04-38.78 54.72-38.72L54.72-38.72L47.36 0ZM105.92 1.28L105.92 1.28L105.92 1.28Q97.73 1.28 96.96-10.37L96.96-10.37L85.95-10.37L85.95-10.37Q84.67-7.42 83.78-4.86L83.78-4.86L82.11 0L73.15 0L93.31-42.24L107.07-42.24L109.76-11.14L109.76-11.14Q110.40-4.42 112.96-2.43L112.96-2.43L112.96-2.43Q111.10 1.28 105.92 1.28ZM91.46-23.17L87.94-15.04L96.77-15.04L96-31.49L96-33.22L91.46-23.17ZM118.27-39.68L118.27-39.68L118.27-39.68Q120.13-43.52 125.28-43.52L125.28-43.52L125.28-43.52Q130.43-43.52 132.83-40.54L132.83-40.54L132.83-40.54Q135.23-37.57 135.23-30.72L135.23-30.72L135.23-7.87L150.78-42.18L158.40-42.18L138.50 0L123.52 0L121.60-30.72L121.60-30.72Q121.41-34.11 120.48-36.42L120.48-36.42L120.48-36.42Q119.55-38.72 118.27-39.68ZM183.17-9.86L183.17-9.86L183.17-9.86Q184.38-8.32 184.38-5.82L184.38-5.82L184.38-5.82Q184.38-2.37 181.82-0.54L181.82-0.54L181.82-0.54Q179.26 1.28 175.23 1.28L175.23 1.28L175.23 1.28Q172.93 1.28 169.41 0.77L169.41 0.77L169.41 0.77Q162.50-0.32 160.38-0.32L160.38-0.32L160.38-0.32Q158.27-0.32 157.44-0.22L157.44-0.22L157.44-0.22Q156.61-0.13 155.26 0L155.26 0L163.14-42.24L190.72-42.24L190.72-42.24Q190.72-38.34 188.83-36.29L188.83-36.29L188.83-36.29Q186.94-34.24 183.23-34.24L183.23-34.24L183.23-34.24Q179.52-34.24 175.74-35.97L175.74-35.97L173.76-24.77L185.15-24.77L185.15-24.77Q185.15-21.38 183.49-19.49L183.49-19.49L183.49-19.49Q181.82-17.60 179.04-17.60L179.04-17.60L179.04-17.60Q176.26-17.60 174.53-18.24L174.53-18.24L174.53-18.24Q172.80-18.88 172.61-19.07L172.61-19.07L170.30-6.98L170.30-6.98Q171.84-6.78 174.72-6.78L174.72-6.78L174.72-6.78Q179.65-6.78 183.17-9.86ZM217.02-9.86L217.02-9.86L217.02-9.86Q218.24-8.32 218.24-5.34L218.24-5.34L218.24-5.34Q218.24-2.37 215.97-0.54L215.97-0.54L215.97-0.54Q213.70 1.28 209.73 1.28L209.73 1.28L209.73 1.28Q207.42 1.28 203.84 0.77L203.84 0.77L203.84 0.77Q196.80-0.32 194.78-0.32L194.78-0.32L194.78-0.32Q192.77-0.32 191.94-0.22L191.94-0.22L191.94-0.22Q191.10-0.13 189.76 0L189.76 0L197.50-42.24L211.52-42.24L205.12-7.04L205.12-7.04Q205.95-6.91 206.72-6.91L206.72-6.91L208.32-6.91L208.32-6.91Q213.70-6.91 217.02-9.86ZM225.54 0L229.25-18.82L229.25-18.82Q227.39-36.16 220.86-39.87L220.86-39.87L220.86-39.87Q222.21-41.54 224.38-42.46L224.38-42.46L224.38-42.46Q226.56-43.39 229.18-43.39L229.18-43.39L229.18-43.39Q231.81-43.39 233.79-42.46L233.79-42.46L233.79-42.46Q235.78-41.54 237.06-39.55L237.06-39.55L237.06-39.55Q239.49-35.78 239.49-26.75L239.49-26.75L239.49-22.14L239.49-22.14Q243.33-33.41 247.17-38.27L247.17-38.27L247.17-38.27Q251.07-43.26 255.94-43.26L255.94-43.26L255.94-43.26Q257.86-43.26 259.14-42.27L259.14-42.27L259.14-42.27Q260.42-41.28 261.06-39.81L261.06-39.81L261.06-39.81Q256.13-37.63 251.39-31.36L251.39-31.36L251.39-31.36Q246.66-25.09 243.58-16.32L243.58-16.32L239.81 0L225.54 0Z" fill="url(#editing-gradient-gradient)"></path></g></g><style>text {
  font-size: 64px;
  font-family: Arial Black;
  dominant-baseline: central;
  text-anchor: middle;
}</style><style class="darkreader darkreader--sync" media="screen"></style></svg>